solid OpenSCAD_Model
  facet normal 1 0 0
    outer loop
      vertex 14 43 86
      vertex 14 41 84
      vertex 14 43 82
    endloop
  endfacet
  facet normal 1 0 0
    outer loop
      vertex 14 43 86
      vertex 14 2 84
      vertex 14 41 84
    endloop
  endfacet
  facet normal 1 0 0
    outer loop
      vertex 14 2 84
      vertex 14 0 86
      vertex 14 2 36
    endloop
  endfacet
  facet normal 1 -0 0
    outer loop
      vertex 14 0 86
      vertex 14 2 84
      vertex 14 43 86
    endloop
  endfacet
  facet normal 1 0 0
    outer loop
      vertex 14 43 82
      vertex 14 41 84
      vertex 14 41 82
    endloop
  endfacet
  facet normal 1 0 0
    outer loop
      vertex 14 41 36
      vertex 14 43 48
      vertex 14 41 48
    endloop
  endfacet
  facet normal 1 0 0
    outer loop
      vertex 14 43 48
      vertex 14 41 36
      vertex 14 43 32
    endloop
  endfacet
  facet normal 1 -0 0
    outer loop
      vertex 14 2 36
      vertex 14 43 32
      vertex 14 41 36
    endloop
  endfacet
  facet normal 1 0 0
    outer loop
      vertex 14 2 36
      vertex 14 0 32
      vertex 14 43 32
    endloop
  endfacet
  facet normal 1 0 0
    outer loop
      vertex 14 0 32
      vertex 14 2 36
      vertex 14 0 86
    endloop
  endfacet
  facet normal 0 -1 0
    outer loop
      vertex 14 43 32
      vertex 15 43 48
      vertex 14 43 48
    endloop
  endfacet
  facet normal 0 -1 -0
    outer loop
      vertex 15 43 48
      vertex 14 43 32
      vertex 15 43 32
    endloop
  endfacet
  facet normal 0 -1 0
    outer loop
      vertex 14 43 82
      vertex 15 43 86
      vertex 14 43 86
    endloop
  endfacet
  facet normal 0 -1 -0
    outer loop
      vertex 15 43 86
      vertex 14 43 82
      vertex 15 43 82
    endloop
  endfacet
  facet normal -0 0 1
    outer loop
      vertex 14 43 32
      vertex 15 0 32
      vertex 15 43 32
    endloop
  endfacet
  facet normal 0 0 1
    outer loop
      vertex 15 0 32
      vertex 14 43 32
      vertex 14 0 32
    endloop
  endfacet
  facet normal 0 0 -1
    outer loop
      vertex 14 2 84
      vertex 9 41 84
      vertex 14 41 84
    endloop
  endfacet
  facet normal 0 0 -1
    outer loop
      vertex 0 2 84
      vertex 9 41 84
      vertex 14 2 84
    endloop
  endfacet
  facet normal 0 0 -1
    outer loop
      vertex 0 58 84
      vertex 9 41 84
      vertex 0 2 84
    endloop
  endfacet
  facet normal 0 0 -1
    outer loop
      vertex 9 41 84
      vertex 0 58 84
      vertex 9 58 84
    endloop
  endfacet
  facet normal -0 0 1
    outer loop
      vertex 9 41 36
      vertex 14 2 36
      vertex 14 41 36
    endloop
  endfacet
  facet normal 0 0 1
    outer loop
      vertex 14 2 36
      vertex 9 41 36
      vertex 9 2 36
    endloop
  endfacet
  facet normal 0 1 -0
    outer loop
      vertex 9 2 0
      vertex 5 2 17
      vertex 9 2 36
    endloop
  endfacet
  facet normal 0 1 0
    outer loop
      vertex 5 2 17
      vertex 9 2 0
      vertex 5 2 12
    endloop
  endfacet
  facet normal 0 1 0
    outer loop
      vertex 0 2 0
      vertex 5 2 12
      vertex 9 2 0
    endloop
  endfacet
  facet normal 0 1 0
    outer loop
      vertex 5 2 12
      vertex 0 2 0
      vertex 0 2 12
    endloop
  endfacet
  facet normal 0 1 0
    outer loop
      vertex 14 2 84
      vertex 5 2 71
      vertex 0 2 84
    endloop
  endfacet
  facet normal 0 1 0
    outer loop
      vertex 14 2 84
      vertex 5 2 66
      vertex 5 2 71
    endloop
  endfacet
  facet normal 0 1 -0
    outer loop
      vertex 14 2 36
      vertex 5 2 66
      vertex 14 2 84
    endloop
  endfacet
  facet normal 0 1 -0
    outer loop
      vertex 9 2 36
      vertex 5 2 66
      vertex 14 2 36
    endloop
  endfacet
  facet normal 0 1 0
    outer loop
      vertex 5 2 66
      vertex 9 2 36
      vertex 0 2 66
    endloop
  endfacet
  facet normal 0 1 0
    outer loop
      vertex 0 2 17
      vertex 9 2 36
      vertex 5 2 17
    endloop
  endfacet
  facet normal 0 1 0
    outer loop
      vertex 9 2 36
      vertex 0 2 17
      vertex 0 2 66
    endloop
  endfacet
  facet normal 0 1 0
    outer loop
      vertex 0 2 84
      vertex 5 2 71
      vertex 0 2 71
    endloop
  endfacet
  facet normal 0 -1 0
    outer loop
      vertex 9 41 82
      vertex 14 41 84
      vertex 9 41 84
    endloop
  endfacet
  facet normal 0 -1 -0
    outer loop
      vertex 14 41 84
      vertex 9 41 82
      vertex 14 41 82
    endloop
  endfacet
  facet normal 0 -1 0
    outer loop
      vertex 9 41 36
      vertex 14 41 48
      vertex 9 41 48
    endloop
  endfacet
  facet normal 0 -1 -0
    outer loop
      vertex 14 41 48
      vertex 9 41 36
      vertex 14 41 36
    endloop
  endfacet
  facet normal -1 0 0
    outer loop
      vertex 0 4 -2
      vertex 0 2 0
      vertex 0 4 0
    endloop
  endfacet
  facet normal -1 0 0
    outer loop
      vertex 0 0 -2
      vertex 0 2 0
      vertex 0 4 -2
    endloop
  endfacet
  facet normal -1 0 0
    outer loop
      vertex 0 0 12
      vertex 0 2 0
      vertex 0 0 -2
    endloop
  endfacet
  facet normal -1 0 0
    outer loop
      vertex 0 2 0
      vertex 0 0 12
      vertex 0 2 12
    endloop
  endfacet
  facet normal -1 0 0
    outer loop
      vertex 0 2 71
      vertex 0 0 71
      vertex 0 2 84
    endloop
  endfacet
  facet normal -1 0 0
    outer loop
      vertex 0 58 84
      vertex 0 60 82
      vertex 0 58 82
    endloop
  endfacet
  facet normal -1 0 0
    outer loop
      vertex 0 60 82
      vertex 0 58 84
      vertex 0 60 86
    endloop
  endfacet
  facet normal -1 0 0
    outer loop
      vertex 0 2 84
      vertex 0 60 86
      vertex 0 58 84
    endloop
  endfacet
  facet normal -1 0 0
    outer loop
      vertex 0 2 84
      vertex 0 0 86
      vertex 0 60 86
    endloop
  endfacet
  facet normal -1 0 0
    outer loop
      vertex 0 0 86
      vertex 0 2 84
      vertex 0 0 71
    endloop
  endfacet
  facet normal -1 0 0
    outer loop
      vertex 0 60 -2
      vertex 0 58 0
      vertex 0 60 48
    endloop
  endfacet
  facet normal -1 0 0
    outer loop
      vertex 0 52 -2
      vertex 0 58 0
      vertex 0 60 -2
    endloop
  endfacet
  facet normal -1 -0 0
    outer loop
      vertex 0 58 0
      vertex 0 52 -2
      vertex 0 52 0
    endloop
  endfacet
  facet normal -1 -0 0
    outer loop
      vertex 0 60 48
      vertex 0 58 0
      vertex 0 58 48
    endloop
  endfacet
  facet normal -1 0 0
    outer loop
      vertex 0 9 -2
      vertex 0 25 0
      vertex 0 25 -2
    endloop
  endfacet
  facet normal -1 -0 0
    outer loop
      vertex 0 25 0
      vertex 0 9 -2
      vertex 0 9 0
    endloop
  endfacet
  facet normal -1 0 0
    outer loop
      vertex 0 30 -2
      vertex 0 47 0
      vertex 0 47 -2
    endloop
  endfacet
  facet normal -1 -0 0
    outer loop
      vertex 0 47 0
      vertex 0 30 -2
      vertex 0 30 0
    endloop
  endfacet
  facet normal -1 0 0
    outer loop
      vertex 0 0 17
      vertex 0 2 66
      vertex 0 2 17
    endloop
  endfacet
  facet normal -1 -0 0
    outer loop
      vertex 0 2 66
      vertex 0 0 17
      vertex 0 0 66
    endloop
  endfacet
  facet normal 0 0 1
    outer loop
      vertex 15 60 86
      vertex 14 43 86
      vertex 15 43 86
    endloop
  endfacet
  facet normal -0 0 1
    outer loop
      vertex 0 60 86
      vertex 14 43 86
      vertex 15 60 86
    endloop
  endfacet
  facet normal 0 0 1
    outer loop
      vertex 0 0 86
      vertex 14 43 86
      vertex 0 60 86
    endloop
  endfacet
  facet normal 0 0 1
    outer loop
      vertex 14 43 86
      vertex 0 0 86
      vertex 14 0 86
    endloop
  endfacet
  facet normal 1 0 0
    outer loop
      vertex 15 43 32
      vertex 15 60 48
      vertex 15 43 48
    endloop
  endfacet
  facet normal 1 0 0
    outer loop
      vertex 15 60 48
      vertex 15 43 32
      vertex 15 60 -2
    endloop
  endfacet
  facet normal 1 0 0
    outer loop
      vertex 15 0 -2
      vertex 15 43 32
      vertex 15 0 32
    endloop
  endfacet
  facet normal 1 0 0
    outer loop
      vertex 15 43 32
      vertex 15 0 -2
      vertex 15 60 -2
    endloop
  endfacet
  facet normal 1 -0 0
    outer loop
      vertex 15 43 86
      vertex 15 60 82
      vertex 15 60 86
    endloop
  endfacet
  facet normal 1 0 0
    outer loop
      vertex 15 60 82
      vertex 15 43 86
      vertex 15 43 82
    endloop
  endfacet
  facet normal 0 0 -1
    outer loop
      vertex 0 30 -2
      vertex 5 47 -2
      vertex 5 30 -2
    endloop
  endfacet
  facet normal -0 0 -1
    outer loop
      vertex 5 47 -2
      vertex 0 30 -2
      vertex 0 47 -2
    endloop
  endfacet
  facet normal 0 0 -1
    outer loop
      vertex 0 9 -2
      vertex 5 25 -2
      vertex 5 9 -2
    endloop
  endfacet
  facet normal -0 0 -1
    outer loop
      vertex 5 25 -2
      vertex 0 9 -2
      vertex 0 25 -2
    endloop
  endfacet
  facet normal 0 0 -1
    outer loop
      vertex 5 9 -2
      vertex 15 0 -2
      vertex 5 4 -2
    endloop
  endfacet
  facet normal 0 0 -1
    outer loop
      vertex 0 0 -2
      vertex 5 4 -2
      vertex 15 0 -2
    endloop
  endfacet
  facet normal -0 0 -1
    outer loop
      vertex 5 4 -2
      vertex 0 0 -2
      vertex 0 4 -2
    endloop
  endfacet
  facet normal 0 0 -1
    outer loop
      vertex 5 25 -2
      vertex 15 0 -2
      vertex 5 9 -2
    endloop
  endfacet
  facet normal 0 0 -1
    outer loop
      vertex 5 30 -2
      vertex 15 0 -2
      vertex 5 25 -2
    endloop
  endfacet
  facet normal 0 0 -1
    outer loop
      vertex 15 0 -2
      vertex 5 30 -2
      vertex 15 60 -2
    endloop
  endfacet
  facet normal 0 0 -1
    outer loop
      vertex 5 47 -2
      vertex 15 60 -2
      vertex 5 30 -2
    endloop
  endfacet
  facet normal 0 0 -1
    outer loop
      vertex 5 52 -2
      vertex 15 60 -2
      vertex 5 47 -2
    endloop
  endfacet
  facet normal 0 0 -1
    outer loop
      vertex 0 60 -2
      vertex 5 52 -2
      vertex 0 52 -2
    endloop
  endfacet
  facet normal 0 0 -1
    outer loop
      vertex 5 52 -2
      vertex 0 60 -2
      vertex 15 60 -2
    endloop
  endfacet
  facet normal 0 -1 0
    outer loop
      vertex 0 0 12
      vertex 0 0 -2
      vertex 5 0 12
    endloop
  endfacet
  facet normal 0 -1 0
    outer loop
      vertex 0 0 66
      vertex 14 0 32
      vertex 5 0 66
    endloop
  endfacet
  facet normal 0 -1 0
    outer loop
      vertex 0 0 17
      vertex 14 0 32
      vertex 0 0 66
    endloop
  endfacet
  facet normal 0 -1 0
    outer loop
      vertex 5 0 17
      vertex 14 0 32
      vertex 0 0 17
    endloop
  endfacet
  facet normal 0 -1 -0
    outer loop
      vertex 14 0 32
      vertex 5 0 17
      vertex 15 0 32
    endloop
  endfacet
  facet normal 0 -1 0
    outer loop
      vertex 15 0 -2
      vertex 5 0 17
      vertex 5 0 12
    endloop
  endfacet
  facet normal 0 -1 0
    outer loop
      vertex 15 0 -2
      vertex 5 0 12
      vertex 0 0 -2
    endloop
  endfacet
  facet normal 0 -1 0
    outer loop
      vertex 5 0 17
      vertex 15 0 -2
      vertex 15 0 32
    endloop
  endfacet
  facet normal 0 -1 0
    outer loop
      vertex 5 0 71
      vertex 0 0 86
      vertex 0 0 71
    endloop
  endfacet
  facet normal 0 -1 0
    outer loop
      vertex 0 0 86
      vertex 5 0 71
      vertex 14 0 86
    endloop
  endfacet
  facet normal 0 -1 0
    outer loop
      vertex 5 0 66
      vertex 14 0 86
      vertex 5 0 71
    endloop
  endfacet
  facet normal 0 -1 -0
    outer loop
      vertex 14 0 86
      vertex 5 0 66
      vertex 14 0 32
    endloop
  endfacet
  facet normal 0 1 -0
    outer loop
      vertex 15 60 -2
      vertex 0 60 48
      vertex 15 60 48
    endloop
  endfacet
  facet normal 0 1 0
    outer loop
      vertex 0 60 48
      vertex 15 60 -2
      vertex 0 60 -2
    endloop
  endfacet
  facet normal 0 1 -0
    outer loop
      vertex 15 60 82
      vertex 0 60 86
      vertex 15 60 86
    endloop
  endfacet
  facet normal 0 1 0
    outer loop
      vertex 0 60 86
      vertex 15 60 82
      vertex 0 60 82
    endloop
  endfacet
  facet normal -1 0 0
    outer loop
      vertex 9 58 0
      vertex 9 41 36
      vertex 9 58 48
    endloop
  endfacet
  facet normal -1 0 0
    outer loop
      vertex 9 2 0
      vertex 9 41 36
      vertex 9 58 0
    endloop
  endfacet
  facet normal -1 -0 0
    outer loop
      vertex 9 41 36
      vertex 9 2 0
      vertex 9 2 36
    endloop
  endfacet
  facet normal -1 -0 0
    outer loop
      vertex 9 58 48
      vertex 9 41 36
      vertex 9 41 48
    endloop
  endfacet
  facet normal -1 0 0
    outer loop
      vertex 9 41 82
      vertex 9 58 84
      vertex 9 58 82
    endloop
  endfacet
  facet normal -1 -0 0
    outer loop
      vertex 9 58 84
      vertex 9 41 82
      vertex 9 41 84
    endloop
  endfacet
  facet normal 0 -1 0
    outer loop
      vertex 0 58 0
      vertex 9 58 48
      vertex 0 58 48
    endloop
  endfacet
  facet normal 0 -1 -0
    outer loop
      vertex 9 58 48
      vertex 0 58 0
      vertex 9 58 0
    endloop
  endfacet
  facet normal 0 -1 0
    outer loop
      vertex 0 58 82
      vertex 9 58 84
      vertex 0 58 84
    endloop
  endfacet
  facet normal 0 -1 -0
    outer loop
      vertex 9 58 84
      vertex 0 58 82
      vertex 9 58 82
    endloop
  endfacet
  facet normal -0 0 1
    outer loop
      vertex 0 25 0
      vertex 5 9 0
      vertex 5 25 0
    endloop
  endfacet
  facet normal 0 0 1
    outer loop
      vertex 5 9 0
      vertex 0 25 0
      vertex 0 9 0
    endloop
  endfacet
  facet normal -0 0 1
    outer loop
      vertex 0 47 0
      vertex 5 30 0
      vertex 5 47 0
    endloop
  endfacet
  facet normal 0 0 1
    outer loop
      vertex 5 30 0
      vertex 0 47 0
      vertex 0 30 0
    endloop
  endfacet
  facet normal 0 0 1
    outer loop
      vertex 5 47 0
      vertex 9 58 0
      vertex 5 52 0
    endloop
  endfacet
  facet normal -0 0 1
    outer loop
      vertex 0 58 0
      vertex 5 52 0
      vertex 9 58 0
    endloop
  endfacet
  facet normal 0 0 1
    outer loop
      vertex 5 52 0
      vertex 0 58 0
      vertex 0 52 0
    endloop
  endfacet
  facet normal 0 0 1
    outer loop
      vertex 5 30 0
      vertex 9 58 0
      vertex 5 47 0
    endloop
  endfacet
  facet normal 0 0 1
    outer loop
      vertex 9 58 0
      vertex 5 30 0
      vertex 9 2 0
    endloop
  endfacet
  facet normal -0 0 1
    outer loop
      vertex 5 25 0
      vertex 9 2 0
      vertex 5 30 0
    endloop
  endfacet
  facet normal -0 0 1
    outer loop
      vertex 5 9 0
      vertex 9 2 0
      vertex 5 25 0
    endloop
  endfacet
  facet normal -0 0 1
    outer loop
      vertex 5 4 0
      vertex 9 2 0
      vertex 5 9 0
    endloop
  endfacet
  facet normal 0 0 1
    outer loop
      vertex 0 2 0
      vertex 5 4 0
      vertex 0 4 0
    endloop
  endfacet
  facet normal 0 0 1
    outer loop
      vertex 5 4 0
      vertex 0 2 0
      vertex 9 2 0
    endloop
  endfacet
  facet normal 0 0 -1
    outer loop
      vertex 14 41 82
      vertex 9 41 82
      vertex 14 43 82
    endloop
  endfacet
  facet normal 0 0 -1
    outer loop
      vertex 14 43 82
      vertex 15 60 82
      vertex 15 43 82
    endloop
  endfacet
  facet normal 0 0 -1
    outer loop
      vertex 9 58 82
      vertex 14 43 82
      vertex 9 41 82
    endloop
  endfacet
  facet normal 0 0 -1
    outer loop
      vertex 14 43 82
      vertex 9 58 82
      vertex 15 60 82
    endloop
  endfacet
  facet normal 0 0 -1
    outer loop
      vertex 0 60 82
      vertex 9 58 82
      vertex 0 58 82
    endloop
  endfacet
  facet normal 0 0 -1
    outer loop
      vertex 9 58 82
      vertex 0 60 82
      vertex 15 60 82
    endloop
  endfacet
  facet normal 0 0 1
    outer loop
      vertex 15 60 48
      vertex 14 43 48
      vertex 15 43 48
    endloop
  endfacet
  facet normal 0 0 1
    outer loop
      vertex 9 41 48
      vertex 14 43 48
      vertex 9 58 48
    endloop
  endfacet
  facet normal 0 0 1
    outer loop
      vertex 15 60 48
      vertex 9 58 48
      vertex 14 43 48
    endloop
  endfacet
  facet normal -0 0 1
    outer loop
      vertex 0 60 48
      vertex 9 58 48
      vertex 15 60 48
    endloop
  endfacet
  facet normal 0 0 1
    outer loop
      vertex 9 58 48
      vertex 0 60 48
      vertex 0 58 48
    endloop
  endfacet
  facet normal 0 0 1
    outer loop
      vertex 14 43 48
      vertex 9 41 48
      vertex 14 41 48
    endloop
  endfacet
  facet normal -1 0 0
    outer loop
      vertex 5 4 -2
      vertex 5 9 0
      vertex 5 9 -2
    endloop
  endfacet
  facet normal -1 -0 0
    outer loop
      vertex 5 9 0
      vertex 5 4 -2
      vertex 5 4 0
    endloop
  endfacet
  facet normal 0 -1 0
    outer loop
      vertex 0 9 -2
      vertex 5 9 0
      vertex 0 9 0
    endloop
  endfacet
  facet normal 0 -1 -0
    outer loop
      vertex 5 9 0
      vertex 0 9 -2
      vertex 5 9 -2
    endloop
  endfacet
  facet normal 0 1 -0
    outer loop
      vertex 5 4 -2
      vertex 0 4 0
      vertex 5 4 0
    endloop
  endfacet
  facet normal 0 1 0
    outer loop
      vertex 0 4 0
      vertex 5 4 -2
      vertex 0 4 -2
    endloop
  endfacet
  facet normal -1 0 0
    outer loop
      vertex 5 25 -2
      vertex 5 30 0
      vertex 5 30 -2
    endloop
  endfacet
  facet normal -1 -0 0
    outer loop
      vertex 5 30 0
      vertex 5 25 -2
      vertex 5 25 0
    endloop
  endfacet
  facet normal 0 1 -0
    outer loop
      vertex 5 25 -2
      vertex 0 25 0
      vertex 5 25 0
    endloop
  endfacet
  facet normal 0 1 0
    outer loop
      vertex 0 25 0
      vertex 5 25 -2
      vertex 0 25 -2
    endloop
  endfacet
  facet normal 0 -1 0
    outer loop
      vertex 0 30 -2
      vertex 5 30 0
      vertex 0 30 0
    endloop
  endfacet
  facet normal 0 -1 -0
    outer loop
      vertex 5 30 0
      vertex 0 30 -2
      vertex 5 30 -2
    endloop
  endfacet
  facet normal -1 0 0
    outer loop
      vertex 5 47 -2
      vertex 5 52 0
      vertex 5 52 -2
    endloop
  endfacet
  facet normal -1 -0 0
    outer loop
      vertex 5 52 0
      vertex 5 47 -2
      vertex 5 47 0
    endloop
  endfacet
  facet normal 0 -1 0
    outer loop
      vertex 0 52 -2
      vertex 5 52 0
      vertex 0 52 0
    endloop
  endfacet
  facet normal 0 -1 -0
    outer loop
      vertex 5 52 0
      vertex 0 52 -2
      vertex 5 52 -2
    endloop
  endfacet
  facet normal 0 1 -0
    outer loop
      vertex 5 47 -2
      vertex 0 47 0
      vertex 5 47 0
    endloop
  endfacet
  facet normal 0 1 0
    outer loop
      vertex 0 47 0
      vertex 5 47 -2
      vertex 0 47 -2
    endloop
  endfacet
  facet normal 0 0 -1
    outer loop
      vertex 0 0 17
      vertex 5 2 17
      vertex 5 0 17
    endloop
  endfacet
  facet normal -0 0 -1
    outer loop
      vertex 5 2 17
      vertex 0 0 17
      vertex 0 2 17
    endloop
  endfacet
  facet normal -1 0 0
    outer loop
      vertex 5 0 12
      vertex 5 2 17
      vertex 5 2 12
    endloop
  endfacet
  facet normal -1 -0 0
    outer loop
      vertex 5 2 17
      vertex 5 0 12
      vertex 5 0 17
    endloop
  endfacet
  facet normal -0 0 1
    outer loop
      vertex 0 2 12
      vertex 5 0 12
      vertex 5 2 12
    endloop
  endfacet
  facet normal 0 0 1
    outer loop
      vertex 5 0 12
      vertex 0 2 12
      vertex 0 0 12
    endloop
  endfacet
  facet normal 0 0 -1
    outer loop
      vertex 0 0 71
      vertex 5 2 71
      vertex 5 0 71
    endloop
  endfacet
  facet normal -0 0 -1
    outer loop
      vertex 5 2 71
      vertex 0 0 71
      vertex 0 2 71
    endloop
  endfacet
  facet normal -1 0 0
    outer loop
      vertex 5 0 66
      vertex 5 2 71
      vertex 5 2 66
    endloop
  endfacet
  facet normal -1 -0 0
    outer loop
      vertex 5 2 71
      vertex 5 0 66
      vertex 5 0 71
    endloop
  endfacet
  facet normal -0 0 1
    outer loop
      vertex 0 2 66
      vertex 5 0 66
      vertex 5 2 66
    endloop
  endfacet
  facet normal 0 0 1
    outer loop
      vertex 5 0 66
      vertex 0 2 66
      vertex 0 0 66
    endloop
  endfacet
endsolid OpenSCAD_Model
