solid OpenSCAD_Model
  facet normal -1 0 0
    outer loop
      vertex -30 0 35
      vertex -30 57 86
      vertex -30 57 35
    endloop
  endfacet
  facet normal -1 -0 0
    outer loop
      vertex -30 57 86
      vertex -30 0 35
      vertex -30 0 86
    endloop
  endfacet
  facet normal -0 0 1
    outer loop
      vertex -30 57 86
      vertex 0 0 86
      vertex 0 57 86
    endloop
  endfacet
  facet normal 0 0 1
    outer loop
      vertex 0 0 86
      vertex -30 57 86
      vertex -30 0 86
    endloop
  endfacet
  facet normal 1 0 0
    outer loop
      vertex 0 57 86
      vertex 0 55 84
      vertex 0 57 35
    endloop
  endfacet
  facet normal 1 0 0
    outer loop
      vertex 0 57 86
      vertex 0 2 84
      vertex 0 55 84
    endloop
  endfacet
  facet normal 1 -0 0
    outer loop
      vertex 0 0 86
      vertex 0 2 84
      vertex 0 57 86
    endloop
  endfacet
  facet normal 1 0 0
    outer loop
      vertex 0 0 81
      vertex 0 2 84
      vertex 0 0 86
    endloop
  endfacet
  facet normal 1 0 0
    outer loop
      vertex 0 2 84
      vertex 0 0 81
      vertex 0 2 81
    endloop
  endfacet
  facet normal 1 -0 0
    outer loop
      vertex 0 55 37
      vertex 0 57 35
      vertex 0 55 84
    endloop
  endfacet
  facet normal 1 0 0
    outer loop
      vertex 0 57 35
      vertex 0 55 37
      vertex 0 55 35
    endloop
  endfacet
  facet normal 1 -0 0
    outer loop
      vertex 0 0 41
      vertex 0 2 37
      vertex 0 2 41
    endloop
  endfacet
  facet normal 1 0 0
    outer loop
      vertex 0 0 35
      vertex 0 2 37
      vertex 0 0 41
    endloop
  endfacet
  facet normal 1 0 0
    outer loop
      vertex 0 2 37
      vertex 0 0 35
      vertex 0 2 35
    endloop
  endfacet
  facet normal 0 0 -1
    outer loop
      vertex -30 0 35
      vertex 0 2 35
      vertex 0 0 35
    endloop
  endfacet
  facet normal -0 0 -1
    outer loop
      vertex 0 2 35
      vertex -30 0 35
      vertex 0 55 35
    endloop
  endfacet
  facet normal 0 0 -1
    outer loop
      vertex -30 57 35
      vertex 0 55 35
      vertex -30 0 35
    endloop
  endfacet
  facet normal 0 0 -1
    outer loop
      vertex 0 55 35
      vertex -30 57 35
      vertex 0 57 35
    endloop
  endfacet
  facet normal 0 0 -1
    outer loop
      vertex 0 2 35
      vertex 1 55 35
      vertex 1 2 35
    endloop
  endfacet
  facet normal -0 0 -1
    outer loop
      vertex 1 55 35
      vertex 0 2 35
      vertex 0 55 35
    endloop
  endfacet
  facet normal 0 -1 0
    outer loop
      vertex -30 0 86
      vertex -20 0 81
      vertex 0 0 86
    endloop
  endfacet
  facet normal 0 -1 0
    outer loop
      vertex -30 0 86
      vertex -20 0 41
      vertex -20 0 81
    endloop
  endfacet
  facet normal 0 -1 0
    outer loop
      vertex -30 0 35
      vertex -20 0 41
      vertex -30 0 86
    endloop
  endfacet
  facet normal 0 -1 0
    outer loop
      vertex 0 0 35
      vertex -20 0 41
      vertex -30 0 35
    endloop
  endfacet
  facet normal 0 -1 0
    outer loop
      vertex -20 0 41
      vertex 0 0 35
      vertex 0 0 41
    endloop
  endfacet
  facet normal 0 -1 -0
    outer loop
      vertex 0 0 86
      vertex -20 0 81
      vertex 0 0 81
    endloop
  endfacet
  facet normal 0 1 -0
    outer loop
      vertex 0 57 35
      vertex -30 57 86
      vertex 0 57 86
    endloop
  endfacet
  facet normal 0 1 0
    outer loop
      vertex -30 57 86
      vertex 0 57 35
      vertex -30 57 35
    endloop
  endfacet
  facet normal -0 0 1
    outer loop
      vertex 0 55 37
      vertex 1 2 37
      vertex 1 55 37
    endloop
  endfacet
  facet normal 0 0 1
    outer loop
      vertex 0 55 37
      vertex 0 2 37
      vertex 1 2 37
    endloop
  endfacet
  facet normal -0 0 1
    outer loop
      vertex -28 55 37
      vertex 0 2 37
      vertex 0 55 37
    endloop
  endfacet
  facet normal 0 0 1
    outer loop
      vertex 0 2 37
      vertex -28 55 37
      vertex -28 2 37
    endloop
  endfacet
  facet normal 1 -0 0
    outer loop
      vertex 1 2 37
      vertex 1 55 35
      vertex 1 55 37
    endloop
  endfacet
  facet normal 1 0 0
    outer loop
      vertex 1 55 35
      vertex 1 2 37
      vertex 1 2 35
    endloop
  endfacet
  facet normal 0 1 -0
    outer loop
      vertex 1 55 35
      vertex 0 55 37
      vertex 1 55 37
    endloop
  endfacet
  facet normal 0 1 0
    outer loop
      vertex 0 55 37
      vertex 1 55 35
      vertex 0 55 35
    endloop
  endfacet
  facet normal 0 -1 0
    outer loop
      vertex 0 2 35
      vertex 1 2 37
      vertex 0 2 37
    endloop
  endfacet
  facet normal 0 -1 -0
    outer loop
      vertex 1 2 37
      vertex 0 2 35
      vertex 1 2 35
    endloop
  endfacet
  facet normal 1 -0 0
    outer loop
      vertex -28 2 84
      vertex -28 55 37
      vertex -28 55 84
    endloop
  endfacet
  facet normal 1 0 0
    outer loop
      vertex -28 55 37
      vertex -28 2 84
      vertex -28 2 37
    endloop
  endfacet
  facet normal 0 0 -1
    outer loop
      vertex -28 2 84
      vertex 0 55 84
      vertex 0 2 84
    endloop
  endfacet
  facet normal -0 0 -1
    outer loop
      vertex 0 55 84
      vertex -28 2 84
      vertex -28 55 84
    endloop
  endfacet
  facet normal 0 1 0
    outer loop
      vertex 0 2 41
      vertex 0 2 37
      vertex -20 2 41
    endloop
  endfacet
  facet normal 0 1 0
    outer loop
      vertex -20 2 81
      vertex 0 2 84
      vertex 0 2 81
    endloop
  endfacet
  facet normal 0 1 0
    outer loop
      vertex 0 2 84
      vertex -20 2 81
      vertex -28 2 84
    endloop
  endfacet
  facet normal 0 1 -0
    outer loop
      vertex -20 2 41
      vertex -28 2 84
      vertex -20 2 81
    endloop
  endfacet
  facet normal 0 1 0
    outer loop
      vertex -20 2 41
      vertex -28 2 37
      vertex -28 2 84
    endloop
  endfacet
  facet normal 0 1 0
    outer loop
      vertex -28 2 37
      vertex -20 2 41
      vertex 0 2 37
    endloop
  endfacet
  facet normal 0 -1 0
    outer loop
      vertex -28 55 37
      vertex 0 55 84
      vertex -28 55 84
    endloop
  endfacet
  facet normal 0 -1 -0
    outer loop
      vertex 0 55 84
      vertex -28 55 37
      vertex 0 55 37
    endloop
  endfacet
  facet normal 1 -0 0
    outer loop
      vertex -20 0 81
      vertex -20 2 41
      vertex -20 2 81
    endloop
  endfacet
  facet normal 1 0 0
    outer loop
      vertex -20 2 41
      vertex -20 0 81
      vertex -20 0 41
    endloop
  endfacet
  facet normal 0 0 -1
    outer loop
      vertex -20 0 81
      vertex 0 2 81
      vertex 0 0 81
    endloop
  endfacet
  facet normal -0 0 -1
    outer loop
      vertex 0 2 81
      vertex -20 0 81
      vertex -20 2 81
    endloop
  endfacet
  facet normal -0 0 1
    outer loop
      vertex -20 2 41
      vertex 0 0 41
      vertex 0 2 41
    endloop
  endfacet
  facet normal 0 0 1
    outer loop
      vertex 0 0 41
      vertex -20 2 41
      vertex -20 0 41
    endloop
  endfacet
endsolid OpenSCAD_Model
